<svg aria-hidden="true" style="position: absolute; width: 0; height: 0; overflow: hidden;"
  version="1.1" xmlns="http://www.w3.org/2000/svg" xmlns:xlink="http://www.w3.org/1999/xlink">
  <defs>
    <symbol id="mark-icon" viewBox="0 0 32 32">
      <path d="M32 16c0 8.837-7.163 16-16 16s-16-7.163-16-16c0-8.837 7.163-16 16-16s16 7.163 16 16z"></path>
      <path stroke-linejoin="round" stroke-linecap="round" stroke-miterlimit="4"
        stroke-width="2.2857" d="M23.619 10.286l-10.476 10.476-4.762-4.762"></path>
    </symbol>
    <symbol id="users-icon" viewBox="0 0 32 32">
      <path
        d="M21.333 24.082v-1.649c1.958-1.241 3.556-4.337 3.556-7.432 0-4.971 0-9-5.333-9s-5.333 4.029-5.333 9c0 3.096 1.597 6.191 3.556 7.432v1.649c-6.030 0.555-10.667 3.888-10.667 7.918h24.889c0-4.030-4.636-7.364-10.667-7.918z"></path>
      <path
        d="M9.089 24.854c1.536-1.13 3.446-1.989 5.549-2.513-0.418-0.556-0.797-1.176-1.124-1.844-0.845-1.726-1.292-3.627-1.292-5.497 0-2.689 0-5.228 0.85-7.305 0.825-2.016 2.309-3.265 4.423-3.734-0.47-2.39-1.721-3.961-5.051-3.961-5.333 0-5.333 4.029-5.333 9 0 3.096 1.597 6.191 3.556 7.432v1.649c-6.030 0.555-10.667 3.888-10.667 7.918h7.75c0.404-0.403 0.85-0.786 1.339-1.145z"></path>
    </symbol>
    <symbol id="arrow-icon" viewBox="0 0 32 32"> 
      <path
        d="M16.473 16.933c-0.062 0.062-0.136 0.112-0.217 0.146s-0.168 0.051-0.256 0.051c-0.088 0-0.175-0.017-0.256-0.051s-0.155-0.083-0.217-0.146l-3.053-3.060c-0.062-0.062-0.136-0.112-0.217-0.146s-0.168-0.051-0.256-0.051c-0.088 0-0.175 0.017-0.256 0.051s-0.155 0.083-0.217 0.146c-0.124 0.125-0.194 0.294-0.194 0.47s0.070 0.345 0.194 0.47l3.060 3.060c0.375 0.375 0.883 0.585 1.413 0.585s1.038-0.21 1.413-0.585l3.060-3.060c0.123-0.124 0.193-0.292 0.193-0.467 0-0.088-0.016-0.175-0.050-0.256s-0.082-0.155-0.144-0.217c-0.062-0.062-0.136-0.112-0.217-0.146s-0.168-0.051-0.256-0.051c-0.088 0-0.175 0.017-0.256 0.051s-0.155 0.083-0.217 0.146l-3.053 3.060z"></path>
    </symbol>
    <symbol id="close-icon" viewBox="0 0 32 32">
      <path fill="none" stroke="#fff" style="stroke: var(--color1, #fff)" stroke-linejoin="round"
        stroke-linecap="round" stroke-miterlimit="4" stroke-width="3" d="M24 8l-16 16"></path>
      <path fill="none" stroke="#fff" style="stroke: var(--color1, #fff)" stroke-linejoin="round"
        stroke-linecap="round" stroke-miterlimit="4" stroke-width="3" d="M8 8l16 16"></path>
    </symbol>
    <symbol id="nav-mobile-icon" viewBox="0 0 32 32">
      <path stroke-linejoin="miter" stroke-linecap="round" stroke-miterlimit="4" stroke-width="3"
        d="M6.37 8.379h24.13"></path>
      <path stroke-linejoin="miter" stroke-linecap="round" stroke-miterlimit="4" stroke-width="3"
        d="M6.37 22.318h24.13"></path>
      <path stroke-linejoin="miter" stroke-linecap="round" stroke-miterlimit="4" stroke-width="3"
        d="M14.022 15.348h16.478"></path>
    </symbol>
    <symbol id="nav-tablet-icon" viewBox="0 0 32 32">
      <path stroke-linejoin="miter" stroke-linecap="round" stroke-miterlimit="4" stroke-width="2.4"
        d="M6.070 8.351h24.73"></path>
      <path stroke-linejoin="miter" stroke-linecap="round" stroke-miterlimit="4" stroke-width="2.4"
        d="M6.070 21.927h24.73"></path>
      <path stroke-linejoin="miter" stroke-linecap="round" stroke-miterlimit="4" stroke-width="2.4"
        d="M13.722 15.139h17.078"></path>
    </symbol>
    <symbol id="facebook-icon" viewBox="0 0 32 32">
      <path
        d="M19.52 4.64c0.24 0 0.48 0 0.96 0v3.6c-0.24 0-0.72 0-1.2 0s-0.96 0-1.2 0.24c-0.24 0.24-0.24 0.48-0.24 1.040 0 0.48 0 0.8 0 1.28h2.64v3.040h-2.64v13.2h-4.080v-13.28h-2.16v-3.040h2.16v-1.040c0-1.76 0.24-3.040 0.72-3.6 0.72-1.040 2.16-1.52 4.32-1.52 0.24 0.080 0.48 0.080 0.72 0.080z"></path>
    </symbol>
    <symbol id="instagram-icon" viewBox="0 0 32 32">
      <path
        d="M28.718 10.756c-0.016-1.074-0.215-2.14-0.596-3.145-0.667-1.716-2.024-3.073-3.743-3.737-0.994-0.373-2.044-0.573-3.108-0.596-1.368-0.061-1.801-0.078-5.273-0.078s-3.916 0-5.274 0.078c-1.062 0.023-2.113 0.223-3.106 0.596-1.719 0.664-3.078 2.021-3.743 3.737-0.374 0.992-0.576 2.041-0.596 3.101-0.061 1.367-0.080 1.8-0.080 5.265s0 3.909 0.080 5.265c0.021 1.062 0.222 2.109 0.596 3.104 0.667 1.714 2.024 3.071 3.744 3.735 0.989 0.386 2.040 0.605 3.106 0.639 1.369 0.061 1.803 0.079 5.274 0.079s3.916 0 5.274-0.079c1.062-0.021 2.112-0.221 3.108-0.595 1.719-0.666 3.076-2.022 3.743-3.737 0.374-0.994 0.574-2.041 0.596-3.104 0.061-1.365 0.080-1.798 0.080-5.265-0.003-3.466-0.003-3.906-0.082-5.264zM15.99 22.531c-3.631 0-6.572-2.936-6.572-6.561s2.941-6.561 6.572-6.561c3.628 0 6.572 2.936 6.572 6.561s-2.944 6.561-6.572 6.561zM22.824 10.696c-0.849 0-1.532-0.684-1.532-1.53s0.684-1.53 1.532-1.53c0.846 0 1.531 0.684 1.531 1.53s-0.685 1.53-1.531 1.53z"></path>
      <path
        d="M15.992 19.976c2.211 0 4.004-1.793 4.004-4.004s-1.793-4.004-4.004-4.004c-2.211 0-4.004 1.793-4.004 4.004s1.793 4.004 4.004 4.004z"></path>
    </symbol>
    <symbol id="youtube-icon" viewBox="0 0 32 32">
      <path
        d="M24.24 6c-1.36-0.080-4.16-0.16-8.4-0.16h-0.56c-4.080 0-6.8 0.080-8.16 0.24-1.84 0.16-3.12 0.64-3.84 1.28-0.64 0.56-1.12 1.6-1.28 2.96-0.080 0.88-0.16 2.72-0.16 5.52v0.4c0 2.64 0.080 4.48 0.24 5.36 0.24 1.28 0.64 2.24 1.44 2.8 0.8 0.64 2.16 1.040 4.080 1.2 1.36 0.080 4.16 0.16 8.4 0.16h0.56c4.080 0 6.8-0.080 8.16-0.24 1.84-0.16 3.12-0.64 3.84-1.28 0.64-0.56 1.12-1.6 1.28-2.96 0.080-0.88 0.16-2.72 0.16-5.52v-0.4c0-2.64-0.080-4.48-0.24-5.36-0.24-1.28-0.64-2.24-1.44-2.8-0.8-0.64-2.16-1.040-4.080-1.2zM21.12 15.84l-8.8 5.28v-10.56l8.8 5.28z"></path>
    </symbol>
    <symbol id="icon-tick" viewBox="0 0 20 20" fill="none">
      <g clip-path="url(#clip0_51_389)">
        <circle cx="10" cy="10" r="10" fill="#4DC274" />
        <path d="M14 7L8.5 13L6 10.2727" stroke="white" stroke-width="1.5" stroke-linecap="round"
          stroke-linejoin="round" />
      </g>
    </symbol>
    <symbol id="radio-btn-icon" viewBox="0 0 32 32">
      <path
        d="M16 0c8.837 0 16 7.163 16 16s-7.163 16-16 16c-8.837 0-16-7.163-16-16s7.163-16 16-16z"></path>
    </symbol>
  </defs>
</svg>